<?xml version="1.0" standalone="no"?>
<!DOCTYPE svg PUBLIC "-//W3C//DTD SVG 20010904//EN"
 "http://www.w3.org/TR/2001/REC-SVG-20010904/DTD/svg10.dtd">
<svg version="1.0" xmlns="http://www.w3.org/2000/svg"
 width="96.000000pt" height="96.000000pt" viewBox="0 0 96.000000 96.000000"
 preserveAspectRatio="xMidYMid meet">
<metadata>
Created by potrace 1.14, written by Peter Selinger 2001-2017
</metadata>
<g transform="translate(0.000000,96.000000) scale(0.100000,-0.100000)"
fill="#000000" stroke="none">
<path d="M251 891 c-33 -46 -37 -85 -12 -110 12 -12 30 -21 41 -21 33 0 63 38
56 71 -6 30 -44 89 -57 89 -4 0 -17 -13 -28 -29z"/>
<path d="M462 908 c-17 -22 -42 -76 -42 -93 0 -21 36 -55 60 -55 26 0 60 34
60 60 0 23 -46 100 -59 100 -5 0 -13 -6 -19 -12z"/>
<path d="M662 908 c-19 -25 -42 -77 -42 -97 0 -22 35 -51 62 -51 24 0 58 35
58 60 0 23 -46 100 -59 100 -5 0 -13 -6 -19 -12z"/>
<path d="M221 661 c-10 -10 -37 -74 -60 -142 l-41 -124 0 -166 c0 -115 4 -169
12 -177 16 -16 80 -16 96 0 7 7 12 25 12 40 l0 28 240 0 240 0 0 -28 c0 -15 5
-33 12 -40 16 -16 80 -16 96 0 8 8 12 62 12 179 l0 167 -39 114 c-44 132 -55
153 -77 162 -8 3 -121 6 -250 6 -215 0 -235 -1 -253 -19z m485 -121 l21 -60
-247 0 -248 0 21 60 21 60 205 0 206 0 21 -60z m54 -240 l0 -100 -280 0 -280
0 0 100 0 100 280 0 280 0 0 -100z"/>
<path d="M260 340 c-11 -11 -20 -29 -20 -40 0 -26 34 -60 60 -60 26 0 60 34
60 60 0 11 -9 29 -20 40 -11 11 -29 20 -40 20 -11 0 -29 -9 -40 -20z"/>
<path d="M620 340 c-11 -11 -20 -29 -20 -40 0 -11 9 -29 20 -40 11 -11 29 -20
40 -20 26 0 60 34 60 60 0 11 -9 29 -20 40 -11 11 -29 20 -40 20 -11 0 -29 -9
-40 -20z"/>
</g>
</svg>
